<?xml version="1.0" encoding="UTF-8"?>
<svg xmlns="http://www.w3.org/2000/svg" width="924" height="528" viewBox="0 0 924 528" version="1.1">
    <defs>
        <filter id="ledglow" x="-1.5" y="-1" width="4" height="3">
            <feMorphology operator="dilate" radius="4" result="dilated" in="SourceAlpha" />
            <feGaussianBlur stdDeviation="5" in="dilated" result="blurred" />
            <feFlood flood-color="rgb(255,17,77)" result="fill" />
            <feComposite in="fill" in2="blurred" result="glow" operator="in" />
            <feMerge>
                <feMergeNode in="glow" />
                <feMergeNode in="SourceGraphic" />
            </feMerge>
        </filter>
        <filter id="ledoff" x="-1.5" y="-1" width="4" height="3">
            <feMorphology in="SourceGraphic" result="dilated" radius="2" operator="erode" />
        </filter>
    </defs>
    <rect width="100%" height="100%" fill="black" />
    <rect x="87" y="22" ry="3" height="24" width="14" style="fill:#ff7f7f;filter:url(#ledglow)" />
    <rect x="133" y="22" ry="3" height="24" width="14" style="fill:#ff7f7f;filter:url(#ledglow)" />
    <rect x="179" y="22" height="24" width="14" style="fill:#202020;filter:url(#ledoff)" />
    <rect x="225" y="22" height="24" width="14" style="fill:#202020;filter:url(#ledoff)" />
    <rect x="271" y="22" height="24" width="14" style="fill:#202020;filter:url(#ledoff)" />
    <rect x="317" y="22" height="24" width="14" style="fill:#202020;filter:url(#ledoff)" />
    <rect x="363" y="22" height="24" width="14" style="fill:#202020;filter:url(#ledoff)" />
    <rect x="409" y="22" height="24" width="14" style="fill:#202020;filter:url(#ledoff)" />
    <rect x="455" y="22" height="24" width="14" style="fill:#202020;filter:url(#ledoff)" />
    <rect x="501" y="22" height="24" width="14" style="fill:#202020;filter:url(#ledoff)" />
    <rect x="547" y="22" height="24" width="14" style="fill:#202020;filter:url(#ledoff)" />
    <rect x="593" y="22" height="24" width="14" style="fill:#202020;filter:url(#ledoff)" />
    <rect x="639" y="22" height="24" width="14" style="fill:#202020;filter:url(#ledoff)" />
    <rect x="685" y="22" height="24" width="14" style="fill:#202020;filter:url(#ledoff)" />
    <rect x="731" y="22" height="24" width="14" style="fill:#202020;filter:url(#ledoff)" />
    <rect x="777" y="22" height="24" width="14" style="fill:#202020;filter:url(#ledoff)" />
    <rect x="823" y="22" height="24" width="14" style="fill:#202020;filter:url(#ledoff)" />
    <rect x="87" y="68" ry="3" height="24" width="14" style="fill:#ff7f7f;filter:url(#ledglow)" />
    <rect x="133" y="68" height="24" width="14" style="fill:#202020;filter:url(#ledoff)" />
    <rect x="179" y="68" ry="3" height="24" width="14" style="fill:#ff7f7f;filter:url(#ledglow)" />
    <rect x="225" y="68" height="24" width="14" style="fill:#202020;filter:url(#ledoff)" />
    <rect x="271" y="68" height="24" width="14" style="fill:#202020;filter:url(#ledoff)" />
    <rect x="317" y="68" height="24" width="14" style="fill:#202020;filter:url(#ledoff)" />
    <rect x="363" y="68" height="24" width="14" style="fill:#202020;filter:url(#ledoff)" />
    <rect x="409" y="68" height="24" width="14" style="fill:#202020;filter:url(#ledoff)" />
    <rect x="455" y="68" height="24" width="14" style="fill:#202020;filter:url(#ledoff)" />
    <rect x="501" y="68" height="24" width="14" style="fill:#202020;filter:url(#ledoff)" />
    <rect x="547" y="68" height="24" width="14" style="fill:#202020;filter:url(#ledoff)" />
    <rect x="593" y="68" height="24" width="14" style="fill:#202020;filter:url(#ledoff)" />
    <rect x="639" y="68" ry="3" height="24" width="14" style="fill:#ff7f7f;filter:url(#ledglow)" />
    <rect x="685" y="68" ry="3" height="24" width="14" style="fill:#ff7f7f;filter:url(#ledglow)" />
    <rect x="731" y="68" height="24" width="14" style="fill:#202020;filter:url(#ledoff)" />
    <rect x="777" y="68" height="24" width="14" style="fill:#202020;filter:url(#ledoff)" />
    <rect x="823" y="68" height="24" width="14" style="fill:#202020;filter:url(#ledoff)" />
    <rect x="87" y="114" ry="3" height="24" width="14" style="fill:#ff7f7f;filter:url(#ledglow)" />
    <rect x="133" y="114" ry="3" height="24" width="14" style="fill:#ff7f7f;filter:url(#ledglow)" />
    <rect x="179" y="114" height="24" width="14" style="fill:#202020;filter:url(#ledoff)" />
    <rect x="225" y="114" height="24" width="14" style="fill:#202020;filter:url(#ledoff)" />
    <rect x="271" y="114" ry="3" height="24" width="14" style="fill:#ff7f7f;filter:url(#ledglow)" />
    <rect x="317" y="114" ry="3" height="24" width="14" style="fill:#ff7f7f;filter:url(#ledglow)" />
    <rect x="363" y="114" ry="3" height="24" width="14" style="fill:#ff7f7f;filter:url(#ledglow)" />
    <rect x="409" y="114" height="24" width="14" style="fill:#202020;filter:url(#ledoff)" />
    <rect x="455" y="114" height="24" width="14" style="fill:#202020;filter:url(#ledoff)" />
    <rect x="501" y="114" ry="3" height="24" width="14" style="fill:#ff7f7f;filter:url(#ledglow)" />
    <rect x="547" y="114" height="24" width="14" style="fill:#202020;filter:url(#ledoff)" />
    <rect x="593" y="114" height="24" width="14" style="fill:#202020;filter:url(#ledoff)" />
    <rect x="639" y="114" ry="3" height="24" width="14" style="fill:#ff7f7f;filter:url(#ledglow)" />
    <rect x="685" y="114" height="24" width="14" style="fill:#202020;filter:url(#ledoff)" />
    <rect x="731" y="114" ry="3" height="24" width="14" style="fill:#ff7f7f;filter:url(#ledglow)" />
    <rect x="777" y="114" height="24" width="14" style="fill:#202020;filter:url(#ledoff)" />
    <rect x="823" y="114" height="24" width="14" style="fill:#202020;filter:url(#ledoff)" />
    <rect x="87" y="160" ry="3" height="24" width="14" style="fill:#ff7f7f;filter:url(#ledglow)" />
    <rect x="133" y="160" height="24" width="14" style="fill:#202020;filter:url(#ledoff)" />
    <rect x="179" y="160" height="24" width="14" style="fill:#202020;filter:url(#ledoff)" />
    <rect x="225" y="160" height="24" width="14" style="fill:#202020;filter:url(#ledoff)" />
    <rect x="271" y="160" ry="3" height="24" width="14" style="fill:#ff7f7f;filter:url(#ledglow)" />
    <rect x="317" y="160" height="24" width="14" style="fill:#202020;filter:url(#ledoff)" />
    <rect x="363" y="160" height="24" width="14" style="fill:#202020;filter:url(#ledoff)" />
    <rect x="409" y="160" height="24" width="14" style="fill:#202020;filter:url(#ledoff)" />
    <rect x="455" y="160" ry="3" height="24" width="14" style="fill:#ff7f7f;filter:url(#ledglow)" />
    <rect x="501" y="160" height="24" width="14" style="fill:#202020;filter:url(#ledoff)" />
    <rect x="547" y="160" ry="3" height="24" width="14" style="fill:#ff7f7f;filter:url(#ledglow)" />
    <rect x="593" y="160" height="24" width="14" style="fill:#202020;filter:url(#ledoff)" />
    <rect x="639" y="160" ry="3" height="24" width="14" style="fill:#ff7f7f;filter:url(#ledglow)" />
    <rect x="685" y="160" ry="3" height="24" width="14" style="fill:#ff7f7f;filter:url(#ledglow)" />
    <rect x="731" y="160" height="24" width="14" style="fill:#202020;filter:url(#ledoff)" />
    <rect x="777" y="160" height="24" width="14" style="fill:#202020;filter:url(#ledoff)" />
    <rect x="823" y="160" height="24" width="14" style="fill:#202020;filter:url(#ledoff)" />
    <rect x="87" y="206" ry="3" height="24" width="14" style="fill:#ff7f7f;filter:url(#ledglow)" />
    <rect x="133" y="206" height="24" width="14" style="fill:#202020;filter:url(#ledoff)" />
    <rect x="179" y="206" height="24" width="14" style="fill:#202020;filter:url(#ledoff)" />
    <rect x="225" y="206" height="24" width="14" style="fill:#202020;filter:url(#ledoff)" />
    <rect x="271" y="206" ry="3" height="24" width="14" style="fill:#ff7f7f;filter:url(#ledglow)" />
    <rect x="317" y="206" height="24" width="14" style="fill:#202020;filter:url(#ledoff)" />
    <rect x="363" y="206" height="24" width="14" style="fill:#202020;filter:url(#ledoff)" />
    <rect x="409" y="206" height="24" width="14" style="fill:#202020;filter:url(#ledoff)" />
    <rect x="455" y="206" height="24" width="14" style="fill:#202020;filter:url(#ledoff)" />
    <rect x="501" y="206" ry="3" height="24" width="14" style="fill:#ff7f7f;filter:url(#ledglow)" />
    <rect x="547" y="206" height="24" width="14" style="fill:#202020;filter:url(#ledoff)" />
    <rect x="593" y="206" height="24" width="14" style="fill:#202020;filter:url(#ledoff)" />
    <rect x="639" y="206" ry="3" height="24" width="14" style="fill:#ff7f7f;filter:url(#ledglow)" />
    <rect x="685" y="206" height="24" width="14" style="fill:#202020;filter:url(#ledoff)" />
    <rect x="731" y="206" height="24" width="14" style="fill:#202020;filter:url(#ledoff)" />
    <rect x="777" y="206" height="24" width="14" style="fill:#202020;filter:url(#ledoff)" />
    <rect x="823" y="206" ry="3" height="24" width="14" style="fill:#ff7f7f;filter:url(#ledglow)" />
    <rect x="87" y="252" height="24" width="14" style="fill:#202020;filter:url(#ledoff)" />
    <rect x="133" y="252" height="24" width="14" style="fill:#202020;filter:url(#ledoff)" />
    <rect x="179" y="252" height="24" width="14" style="fill:#202020;filter:url(#ledoff)" />
    <rect x="225" y="252" height="24" width="14" style="fill:#202020;filter:url(#ledoff)" />
    <rect x="271" y="252" height="24" width="14" style="fill:#202020;filter:url(#ledoff)" />
    <rect x="317" y="252" height="24" width="14" style="fill:#202020;filter:url(#ledoff)" />
    <rect x="363" y="252" height="24" width="14" style="fill:#202020;filter:url(#ledoff)" />
    <rect x="409" y="252" height="24" width="14" style="fill:#202020;filter:url(#ledoff)" />
    <rect x="455" y="252" height="24" width="14" style="fill:#202020;filter:url(#ledoff)" />
    <rect x="501" y="252" height="24" width="14" style="fill:#202020;filter:url(#ledoff)" />
    <rect x="547" y="252" height="24" width="14" style="fill:#202020;filter:url(#ledoff)" />
    <rect x="593" y="252" height="24" width="14" style="fill:#202020;filter:url(#ledoff)" />
    <rect x="639" y="252" height="24" width="14" style="fill:#202020;filter:url(#ledoff)" />
    <rect x="685" y="252" height="24" width="14" style="fill:#202020;filter:url(#ledoff)" />
    <rect x="731" y="252" height="24" width="14" style="fill:#202020;filter:url(#ledoff)" />
    <rect x="777" y="252" height="24" width="14" style="fill:#202020;filter:url(#ledoff)" />
    <rect x="823" y="252" height="24" width="14" style="fill:#202020;filter:url(#ledoff)" />
    <rect x="87" y="298" height="24" width="14" style="fill:#202020;filter:url(#ledoff)" />
    <rect x="133" y="298" ry="3" height="24" width="14" style="fill:#ff7f7f;filter:url(#ledglow)" />
    <rect x="179" y="298" ry="3" height="24" width="14" style="fill:#ff7f7f;filter:url(#ledglow)" />
    <rect x="225" y="298" ry="3" height="24" width="14" style="fill:#ff7f7f;filter:url(#ledglow)" />
    <rect x="271" y="298" height="24" width="14" style="fill:#202020;filter:url(#ledoff)" />
    <rect x="317" y="298" height="24" width="14" style="fill:#202020;filter:url(#ledoff)" />
    <rect x="363" y="298" height="24" width="14" style="fill:#202020;filter:url(#ledoff)" />
    <rect x="409" y="298" height="24" width="14" style="fill:#202020;filter:url(#ledoff)" />
    <rect x="455" y="298" height="24" width="14" style="fill:#202020;filter:url(#ledoff)" />
    <rect x="501" y="298" height="24" width="14" style="fill:#202020;filter:url(#ledoff)" />
    <rect x="547" y="298" height="24" width="14" style="fill:#202020;filter:url(#ledoff)" />
    <rect x="593" y="298" height="24" width="14" style="fill:#202020;filter:url(#ledoff)" />
    <rect x="639" y="298" height="24" width="14" style="fill:#202020;filter:url(#ledoff)" />
    <rect x="685" y="298" height="24" width="14" style="fill:#202020;filter:url(#ledoff)" />
    <rect x="731" y="298" height="24" width="14" style="fill:#202020;filter:url(#ledoff)" />
    <rect x="777" y="298" height="24" width="14" style="fill:#202020;filter:url(#ledoff)" />
    <rect x="823" y="298" height="24" width="14" style="fill:#202020;filter:url(#ledoff)" />
    <rect x="87" y="344" height="24" width="14" style="fill:#202020;filter:url(#ledoff)" />
    <rect x="133" y="344" ry="3" height="24" width="14" style="fill:#ff7f7f;filter:url(#ledglow)" />
    <rect x="179" y="344" height="24" width="14" style="fill:#202020;filter:url(#ledoff)" />
    <rect x="225" y="344" height="24" width="14" style="fill:#202020;filter:url(#ledoff)" />
    <rect x="271" y="344" height="24" width="14" style="fill:#202020;filter:url(#ledoff)" />
    <rect x="317" y="344" height="24" width="14" style="fill:#202020;filter:url(#ledoff)" />
    <rect x="363" y="344" height="24" width="14" style="fill:#202020;filter:url(#ledoff)" />
    <rect x="409" y="344" height="24" width="14" style="fill:#202020;filter:url(#ledoff)" />
    <rect x="455" y="344" height="24" width="14" style="fill:#202020;filter:url(#ledoff)" />
    <rect x="501" y="344" height="24" width="14" style="fill:#202020;filter:url(#ledoff)" />
    <rect x="547" y="344" height="24" width="14" style="fill:#202020;filter:url(#ledoff)" />
    <rect x="593" y="344" height="24" width="14" style="fill:#202020;filter:url(#ledoff)" />
    <rect x="639" y="344" height="24" width="14" style="fill:#202020;filter:url(#ledoff)" />
    <rect x="685" y="344" height="24" width="14" style="fill:#202020;filter:url(#ledoff)" />
    <rect x="731" y="344" ry="3" height="24" width="14" style="fill:#ff7f7f;filter:url(#ledglow)" />
    <rect x="777" y="344" height="24" width="14" style="fill:#202020;filter:url(#ledoff)" />
    <rect x="823" y="344" height="24" width="14" style="fill:#202020;filter:url(#ledoff)" />
    <rect x="87" y="390" height="24" width="14" style="fill:#202020;filter:url(#ledoff)" />
    <rect x="133" y="390" ry="3" height="24" width="14" style="fill:#ff7f7f;filter:url(#ledglow)" />
    <rect x="179" y="390" ry="3" height="24" width="14" style="fill:#ff7f7f;filter:url(#ledglow)" />
    <rect x="225" y="390" height="24" width="14" style="fill:#202020;filter:url(#ledoff)" />
    <rect x="271" y="390" height="24" width="14" style="fill:#202020;filter:url(#ledoff)" />
    <rect x="317" y="390" height="24" width="14" style="fill:#202020;filter:url(#ledoff)" />
    <rect x="363" y="390" ry="3" height="24" width="14" style="fill:#ff7f7f;filter:url(#ledglow)" />
    <rect x="409" y="390" height="24" width="14" style="fill:#202020;filter:url(#ledoff)" />
    <rect x="455" y="390" height="24" width="14" style="fill:#202020;filter:url(#ledoff)" />
    <rect x="501" y="390" ry="3" height="24" width="14" style="fill:#ff7f7f;filter:url(#ledglow)" />
    <rect x="547" y="390" ry="3" height="24" width="14" style="fill:#ff7f7f;filter:url(#ledglow)" />
    <rect x="593" y="390" height="24" width="14" style="fill:#202020;filter:url(#ledoff)" />
    <rect x="639" y="390" height="24" width="14" style="fill:#202020;filter:url(#ledoff)" />
    <rect x="685" y="390" ry="3" height="24" width="14" style="fill:#ff7f7f;filter:url(#ledglow)" />
    <rect x="731" y="390" ry="3" height="24" width="14" style="fill:#ff7f7f;filter:url(#ledglow)" />
    <rect x="777" y="390" ry="3" height="24" width="14" style="fill:#ff7f7f;filter:url(#ledglow)" />
    <rect x="823" y="390" height="24" width="14" style="fill:#202020;filter:url(#ledoff)" />
    <rect x="87" y="436" height="24" width="14" style="fill:#202020;filter:url(#ledoff)" />
    <rect x="133" y="436" ry="3" height="24" width="14" style="fill:#ff7f7f;filter:url(#ledglow)" />
    <rect x="179" y="436" height="24" width="14" style="fill:#202020;filter:url(#ledoff)" />
    <rect x="225" y="436" height="24" width="14" style="fill:#202020;filter:url(#ledoff)" />
    <rect x="271" y="436" height="24" width="14" style="fill:#202020;filter:url(#ledoff)" />
    <rect x="317" y="436" ry="3" height="24" width="14" style="fill:#ff7f7f;filter:url(#ledglow)" />
    <rect x="363" y="436" height="24" width="14" style="fill:#202020;filter:url(#ledoff)" />
    <rect x="409" y="436" ry="3" height="24" width="14" style="fill:#ff7f7f;filter:url(#ledglow)" />
    <rect x="455" y="436" height="24" width="14" style="fill:#202020;filter:url(#ledoff)" />
    <rect x="501" y="436" ry="3" height="24" width="14" style="fill:#ff7f7f;filter:url(#ledglow)" />
    <rect x="547" y="436" height="24" width="14" style="fill:#202020;filter:url(#ledoff)" />
    <rect x="593" y="436" ry="3" height="24" width="14" style="fill:#ff7f7f;filter:url(#ledglow)" />
    <rect x="639" y="436" height="24" width="14" style="fill:#202020;filter:url(#ledoff)" />
    <rect x="685" y="436" height="24" width="14" style="fill:#202020;filter:url(#ledoff)" />
    <rect x="731" y="436" ry="3" height="24" width="14" style="fill:#ff7f7f;filter:url(#ledglow)" />
    <rect x="777" y="436" height="24" width="14" style="fill:#202020;filter:url(#ledoff)" />
    <rect x="823" y="436" height="24" width="14" style="fill:#202020;filter:url(#ledoff)" />
    <rect x="87" y="482" height="24" width="14" style="fill:#202020;filter:url(#ledoff)" />
    <rect x="133" y="482" ry="3" height="24" width="14" style="fill:#ff7f7f;filter:url(#ledglow)" />
    <rect x="179" y="482" height="24" width="14" style="fill:#202020;filter:url(#ledoff)" />
    <rect x="225" y="482" height="24" width="14" style="fill:#202020;filter:url(#ledoff)" />
    <rect x="271" y="482" height="24" width="14" style="fill:#202020;filter:url(#ledoff)" />
    <rect x="317" y="482" height="24" width="14" style="fill:#202020;filter:url(#ledoff)" />
    <rect x="363" y="482" ry="3" height="24" width="14" style="fill:#ff7f7f;filter:url(#ledglow)" />
    <rect x="409" y="482" height="24" width="14" style="fill:#202020;filter:url(#ledoff)" />
    <rect x="455" y="482" height="24" width="14" style="fill:#202020;filter:url(#ledoff)" />
    <rect x="501" y="482" ry="3" height="24" width="14" style="fill:#ff7f7f;filter:url(#ledglow)" />
    <rect x="547" y="482" height="24" width="14" style="fill:#202020;filter:url(#ledoff)" />
    <rect x="593" y="482" ry="3" height="24" width="14" style="fill:#ff7f7f;filter:url(#ledglow)" />
    <rect x="639" y="482" height="24" width="14" style="fill:#202020;filter:url(#ledoff)" />
    <rect x="685" y="482" height="24" width="14" style="fill:#202020;filter:url(#ledoff)" />
    <rect x="731" y="482" ry="3" height="24" width="14" style="fill:#ff7f7f;filter:url(#ledglow)" />
    <rect x="777" y="482" ry="3" height="24" width="14" style="fill:#ff7f7f;filter:url(#ledglow)" />
    <rect x="823" y="482" height="24" width="14" style="fill:#202020;filter:url(#ledoff)" />
</svg>